<?xml version="1.0" encoding="UTF-8" standalone="no"?>
<svg
   version="1.1"
   viewBox="0 0 80 80"
   id="svg135"
   sodipodi:docname="icon.svg"
   width="80"
   height="80"
   inkscape:version="1.2 (dc2aedaf03, 2022-05-15)"
   inkscape:export-filename="icon_128.png"
   inkscape:export-xdpi="153.60001"
   inkscape:export-ydpi="153.60001"
   xmlns:inkscape="http://www.inkscape.org/namespaces/inkscape"
   xmlns:sodipodi="http://sodipodi.sourceforge.net/DTD/sodipodi-0.dtd"
   xmlns="http://www.w3.org/2000/svg"
   xmlns:svg="http://www.w3.org/2000/svg">
  <defs
     id="defs139" />
  <sodipodi:namedview
     id="namedview137"
     pagecolor="#ffffff"
     bordercolor="#000000"
     borderopacity="0.25"
     inkscape:showpageshadow="2"
     inkscape:pageopacity="0.0"
     inkscape:pagecheckerboard="0"
     inkscape:deskcolor="#d1d1d1"
     showgrid="true"
     inkscape:zoom="4.27"
     inkscape:cx="15.456674"
     inkscape:cy="41.686183"
     inkscape:window-width="1409"
     inkscape:window-height="897"
     inkscape:window-x="414"
     inkscape:window-y="128"
     inkscape:window-maximized="0"
     inkscape:current-layer="svg135">
    <inkscape:grid
       type="xygrid"
       id="grid1752"
       originx="0"
       originy="0" />
  </sodipodi:namedview>
  <path
     id="rect6042"
     style="fill:#5b5b5b;fill-opacity:1;stroke-width:4;stroke-linecap:round;stroke-linejoin:round;paint-order:markers fill stroke"
     d="M 10,0 C 4.4600055,0 0,4.4600055 0,10 V 80 H 80 V 10 C 80,4.4600055 75.539994,0 70,0 Z"
     sodipodi:nodetypes="sccccss" />
  <path
     d="M 10,5 C 7.2387,5.000276 5.0003,7.2387 5,10 V 80 H 75 V 10 C 74.999724,7.2387 72.7613,5.0003 70,5 Z"
     fill="#4d4d4d"
     id="path6047"
     style="fill:#d5d5ed;fill-opacity:1"
     sodipodi:nodetypes="ccccccc" />
  <path
     id="rect6111"
     style="fill:#5b5b5b;fill-opacity:1;stroke-width:3.57771;stroke-linecap:round;stroke-linejoin:round;paint-order:markers fill stroke"
     d="M 20 15 A 5 5 0 0 0 15 20 A 5 5 0 0 0 20 25 L 35 25 L 35 65 A 5 5 0 0 0 40 70 A 5 5 0 0 0 45 65 L 45 25 L 60 25 A 5 5 0 0 0 65 20 A 5 5 0 0 0 60 15 L 20 15 z " />
</svg>
