<?xml version="1.0" encoding="UTF-8"?>
<svg version="1.1" viewBox="0 0 100 100" xmlns="http://www.w3.org/2000/svg">
 <rect x="4" y="4" width="92" height="92" fill="#666"/>
 <path d="m25 15c-2.7613 2.76e-4 -4.9997 2.2387-5 5v61h60v-61c-2.76e-4 -2.7613-2.2387-4.9997-5-5z" fill="#4d4d4d"/>
 <path d="m5 0a5.0005 5.0005 0 0 0-5 5v90a5.0005 5.0005 0 0 0 5 5h90a5.0005 5.0005 0 0 0 5-5v-90a5.0005 5.0005 0 0 0-5-5h-90zm5 5h80a5.0005 5.0005 0 0 1 5 5v10h-10c-2.7613 2.76e-4 -4.9997 2.2387-5 5v55h-60v-55a5.0005 5.0005 0 0 0-5-5h-10v-10a5.0005 5.0005 0 0 1 5-5zm-5 20h5a5.0005 5.0005 0 0 1 5 5v50h-10v-55zm85 0h5v55h-10v-50c2.76e-4 -2.7613 2.2387-4.9997 5-5zm-85 60h90v5a5.0005 5.0005 0 0 1-5 5h-80a5.0005 5.0005 0 0 1-5-5v-5z" fill="#999"/>
</svg>
